<svg width="512" height="512" viewBox="0 0 512 512" fill="none" xmlns="http://www.w3.org/2000/svg">
<g clip-path="url(#clip0_1741_45421)">
<rect width="512" height="512" fill="#06060A"/>
<g filter="url(#filter0_f_1741_45421)">
<ellipse cx="145.205" cy="208.87" rx="145.205" ry="208.87" transform="matrix(0.801069 -0.598572 0.473035 0.881044 -144.23 275.765)" fill="#0A0F29"/>
</g>
<g filter="url(#filter1_f_1741_45421)">
<ellipse cx="114.581" cy="182.09" rx="114.581" ry="182.09" transform="matrix(0.906137 0.422985 -0.318002 0.94809 394.81 -107)" fill="#014323" fill-opacity="0.85"/>
</g>
<path d="M83.2726 222.97L94.9295 222.879C106.724 222.787 117.648 228.982 123.625 239.139C126.659 244.292 128.182 250.086 128.182 255.857C128.182 261.628 126.751 267.079 123.888 272.128C118.083 282.365 107.239 288.755 95.4677 288.846L84.2917 288.938H58.31L56.432 306.057L61.7223 315L74.8334 314.885L95.6738 314.714C116.697 314.542 136.038 303.148 146.401 284.873C156.764 266.586 156.569 244.143 145.908 226.028C140.629 217.039 133.152 209.768 124.392 204.775C120.442 202.496 116.205 200.699 111.808 199.405C106.483 197.836 100.895 197 95.2043 197H94.7119L60.749 197.286L54.6343 213.478L62.9819 222.982H75.8639L75.8983 223.039L83.1695 222.982H83.2726V222.97Z" fill="url(#paint0_linear_1741_45421)"/>
<path d="M80.1462 230.276C89.4556 246.101 89.6159 265.705 80.5698 281.678L76.4247 288.995L61.7104 314.989H61.6875L46.5382 289.236H46.5611L61.2753 263.266C63.783 258.834 63.7372 253.406 61.1494 249.021L46.0229 223.268H46L60.7371 197.275L75.8865 223.028L80.1462 230.276Z" fill="url(#paint1_linear_1741_45421)"/>
<path d="M156.936 224.551H203.861L154.68 311.817V312.538H248.175V286.82H200.345L248.725 199.817V199.096H156.936V224.551ZM295.845 199.107L252.526 312.55H281.955L289.89 290.53H290.016L298.936 266.163L310.57 234.215L322.216 266.163L339.266 312.55H369.416L326.097 199.107H295.856H295.845ZM453.854 209.378C446.365 202.531 436.368 199.107 423.853 199.107H374.122V312.55H403.55V277.259H423.864C436.368 277.259 446.376 273.846 453.865 267.033C461.365 260.197 465.11 250.613 465.11 238.292C465.11 225.971 461.365 216.26 453.865 209.401L453.854 209.378ZM420.692 252.445H403.55V224.013H420.692C431.044 224.013 436.219 228.753 436.219 238.269C436.219 247.784 431.044 252.433 420.692 252.433V252.445Z" fill="#41907B"/>
</g>
<defs>
<filter id="filter0_f_1741_45421" x="-289.225" y="-38.1874" width="720.233" height="822.121" filterUnits="userSpaceOnUse" color-interpolation-filters="sRGB">
<feFlood flood-opacity="0" result="BackgroundImageFix"/>
<feBlend mode="normal" in="SourceGraphic" in2="BackgroundImageFix" result="shape"/>
<feGaussianBlur stdDeviation="103.748" result="effect1_foregroundBlur_1741_45421"/>
</filter>
<filter id="filter1_f_1741_45421" x="29.2732" y="-357.809" width="822.915" height="943.825" filterUnits="userSpaceOnUse" color-interpolation-filters="sRGB">
<feFlood flood-opacity="0" result="BackgroundImageFix"/>
<feBlend mode="normal" in="SourceGraphic" in2="BackgroundImageFix" result="shape"/>
<feGaussianBlur stdDeviation="146.277" result="effect1_foregroundBlur_1741_45421"/>
</filter>
<linearGradient id="paint0_linear_1741_45421" x1="129.946" y1="308.702" x2="68.0317" y2="217.898" gradientUnits="userSpaceOnUse">
<stop stop-color="#002A25"/>
<stop offset="1" stop-color="#82F4CF"/>
</linearGradient>
<linearGradient id="paint1_linear_1741_45421" x1="63.4166" y1="207.775" x2="68.9244" y2="309.584" gradientUnits="userSpaceOnUse">
<stop stop-color="#002A25"/>
<stop offset="1" stop-color="#82F4CF"/>
</linearGradient>
<clipPath id="clip0_1741_45421">
<rect width="512" height="512" fill="white"/>
</clipPath>
</defs>
</svg>
