<svg width="128" height="128" viewBox="0 0 128 128" fill="none" xmlns="http://www.w3.org/2000/svg">
<path d="M54.1628 45.7458L60.7816 45.6938C67.4783 45.6418 73.6809 49.1592 77.0748 54.9262C78.7978 57.852 79.6625 61.1419 79.6625 64.4187C79.6625 67.6956 78.8498 70.7904 77.2244 73.6576C73.928 79.4702 67.7709 83.0981 61.0872 83.1501L54.7415 83.2021H39.9891L38.9229 92.9222L41.9267 98L49.3711 97.935L61.2042 97.8375C73.1413 97.7399 84.1227 91.2707 90.0067 80.894C95.8907 70.5108 95.7802 57.7675 89.7271 47.4818C86.7299 42.378 82.4843 38.2494 77.5105 35.4146C75.2674 34.1208 72.8617 33.1 70.3651 32.3653C67.3418 31.4746 64.169 31 60.9376 31H60.658L41.374 31.1625L37.9021 40.3559L42.6418 45.7524H49.9562L49.9757 45.7849L54.1043 45.7524H54.1628V45.7458Z" fill="url(#paint0_linear_1741_45960)"/>
<path d="M52.3881 49.8942C57.6739 58.8795 57.765 70.0104 52.6286 79.0803L50.275 83.2349L41.9203 97.9937H41.9073L33.3056 83.3714H33.3186L41.6733 68.6255C43.0971 66.1094 43.0711 63.0276 41.6018 60.5374L33.013 45.9151H33L41.3677 31.1562L49.9694 45.7786L52.3881 49.8942Z" fill="url(#paint1_linear_1741_45960)"/>
<defs>
<linearGradient id="paint0_linear_1741_45960" x1="80.6638" y1="94.4241" x2="45.5091" y2="42.8656" gradientUnits="userSpaceOnUse">
<stop stop-color="#002A25"/>
<stop offset="1" stop-color="#82F4CF"/>
</linearGradient>
<linearGradient id="paint1_linear_1741_45960" x1="42.8891" y1="37.1183" x2="46.0164" y2="94.9249" gradientUnits="userSpaceOnUse">
<stop stop-color="#002A25"/>
<stop offset="1" stop-color="#82F4CF"/>
</linearGradient>
</defs>
</svg>
