<svg width="512" height="512" viewBox="0 0 512 512" fill="none" xmlns="http://www.w3.org/2000/svg">
<path d="M215.731 175.219L244.107 174.996C272.818 174.773 299.41 189.853 313.96 214.578C321.347 227.121 325.054 241.226 325.054 255.274C325.054 269.323 321.57 282.591 314.601 294.884C300.469 319.804 274.072 335.358 245.417 335.581L218.212 335.803H154.965L150.393 377.476L163.271 399.246L195.187 398.967L245.919 398.549C297.096 398.131 344.176 370.396 369.402 325.908C394.629 281.393 394.155 226.759 368.204 182.662C355.354 160.78 337.152 143.08 315.828 130.927C306.211 125.38 295.898 121.003 285.194 117.854C272.232 114.035 258.63 112 244.776 112H243.577L160.902 112.697L146.017 152.111L166.337 175.247H197.696L197.78 175.386L215.48 175.247H215.731V175.219Z" fill="url(#paint0_linear_1741_45978)"/>
<path d="M208.121 193.003C230.783 231.525 231.174 279.246 209.153 318.131L199.062 335.943L163.244 399.218H163.188L126.31 336.528H126.366L162.184 273.309C168.289 262.522 168.177 249.309 161.878 238.633L125.056 175.944H125L160.874 112.669L197.752 175.358L208.121 193.003Z" fill="url(#paint1_linear_1741_45978)"/>
<defs>
<linearGradient id="paint0_linear_1741_45978" x1="329.347" y1="383.915" x2="178.63" y2="162.871" gradientUnits="userSpaceOnUse">
<stop stop-color="#002A25"/>
<stop offset="1" stop-color="#82F4CF"/>
</linearGradient>
<linearGradient id="paint1_linear_1741_45978" x1="167.397" y1="138.23" x2="180.805" y2="386.061" gradientUnits="userSpaceOnUse">
<stop stop-color="#002A25"/>
<stop offset="1" stop-color="#82F4CF"/>
</linearGradient>
</defs>
</svg>
